<svg viewBox="0 0 1000 1000" xmlns:xlink="http://www.w3.org/1999/xlink" xmlns="http://www.w3.org/2000/svg">
    <defs>
        <clipPath id="b">
            <use xlink:href="#a" clip-rule="evenodd"/>
        </clipPath>
        <path id="a" d="M0 0h1000v1000H0z"/>
    </defs>
    <g clip-path="url(#b)">
        <path d="m66.77 88.287 821.085-43.031q.589-.03 1.178-.033.589-.002 1.177.025.589.027 1.175.083.587.056 1.17.14.583.085 1.16.198.58.113 1.152.254.57.142 1.136.31.564.17 1.119.367.556.196 1.1.42.546.224 1.079.474.534.25 1.054.526t1.027.577q.506.301.997.627.49.326.965.675.475.35.93.722.458.372.896.766.438.395.856.81.418.415.815.85.397.435.772.89.375.454.728.926.352.472.68.96.33.49.635.994.304.504.583 1.023.28.518.534 1.05.253.532.48 1.076.228.543.428 1.097.2.554.373 1.117.173.564.318 1.135.145.57.262 1.148.117.578.205 1.16.088.582.148 1.169.06.586.09 1.174l42.983 820.148q.03.588.032 1.177.002.589-.025 1.178-.027.588-.083 1.175-.055.586-.14 1.169-.085.583-.198 1.162-.113.578-.254 1.15-.141.572-.31 1.136-.17.564-.366 1.12-.197.555-.421 1.1-.223.545-.473 1.079-.25.533-.526 1.053-.277.521-.578 1.027-.301.507-.627.998-.325.49-.675.965-.35.474-.721.931-.373.456-.767.894t-.81.856q-.415.418-.85.815-.435.397-.89.772-.454.376-.926.728-.472.352-.96.681-.49.329-.993.634-.505.304-1.023.584-.52.279-1.051.533-.532.253-1.075.481-.544.227-1.098.427-.554.201-1.117.373-.563.173-1.134.318-.571.145-1.15.262-.576.117-1.16.205-.581.089-1.167.148-.586.06-1.175.091l-821.085 43.031q-.588.031-1.178.033-.589.002-1.177-.025-.589-.027-1.175-.083-.587-.056-1.17-.14-.583-.085-1.161-.198-.578-.113-1.15-.254-.572-.142-1.136-.311-.565-.169-1.12-.366-.555-.196-1.1-.42-.546-.224-1.079-.474-.533-.25-1.054-.526-.52-.276-1.027-.577-.506-.302-.997-.627-.49-.326-.965-.675-.474-.35-.931-.722-.457-.372-.895-.766-.437-.395-.855-.81-.418-.415-.815-.85-.397-.436-.773-.89-.375-.454-.727-.926-.353-.472-.682-.961-.329-.489-.633-.993-.305-.504-.584-1.023-.28-.519-.533-1.05-.254-.532-.481-1.076-.227-.543-.428-1.097-.2-.554-.373-1.117-.173-.564-.318-1.135-.145-.571-.261-1.148-.117-.578-.206-1.16-.088-.582-.148-1.169-.06-.586-.09-1.174L44.06 113.509q-.031-.588-.033-1.177-.002-.59.025-1.178.027-.588.083-1.175.056-.586.14-1.17.085-.582.198-1.16.113-.579.254-1.15.141-.573.31-1.137.17-.564.366-1.12.197-.555.42-1.1.224-.545.475-1.079.25-.533.526-1.053.276-.52.577-1.027.301-.507.627-.997.326-.491.675-.966.35-.474.722-.93.372-.457.766-.895t.81-.856q.415-.418.85-.815.435-.397.89-.772.454-.375.926-.728.472-.352.96-.681.49-.33.994-.634t1.023-.584q.518-.28 1.05-.533t1.075-.48q.544-.228 1.098-.428.554-.2 1.117-.373t1.134-.318q.571-.145 1.149-.262.577-.117 1.16-.205.582-.089 1.168-.148.587-.06 1.175-.09Z"
              fill="#9363DE" fill-rule="evenodd"/>
        <path d="m97.101 59.067 822.087 14.35q.59.01 1.177.05.588.039 1.173.107.585.068 1.166.164.581.097 1.157.222.576.125 1.145.278.57.153 1.13.334.56.18 1.111.389.551.208 1.092.443.54.235 1.068.496.528.26 1.043.548.514.286 1.014.598t.984.648q.484.335.951.695.468.359.916.74.45.382.88.785.428.403.838.827.41.424.797.867.388.444.754.906.365.461.708.94.342.48.661.975.32.496.613 1.006.294.511.563 1.035.268.525.511 1.062.242.536.458 1.085.216.548.405 1.106.19.558.35 1.125.161.566.294 1.14.133.574.238 1.154.105.58.181 1.164.077.584.124 1.171.048.587.066 1.176.02.589.01 1.178L928.43 918.98q-.01.589-.049 1.177-.039.587-.107 1.173-.068.585-.165 1.166-.096.58-.22 1.157-.126.576-.28 1.145-.153.568-.333 1.129-.18.56-.389 1.112-.209.55-.443 1.09-.235.542-.497 1.07-.26.528-.547 1.043-.287.514-.599 1.014-.31.5-.647.984-.336.484-.695.95-.359.468-.74.917-.383.449-.786.878-.403.43-.827.839-.424.41-.867.798-.443.387-.905.753t-.942.709q-.479.342-.974.66-.496.32-1.006.614t-1.035.562q-.524.269-1.06.51-.538.244-1.086.46-.548.216-1.107.405-.558.188-1.124.35-.567.16-1.14.294-.575.133-1.155.238-.579.105-1.163.18-.585.077-1.172.125-.587.047-1.176.066-.589.019-1.178.008L81.93 928.206q-.59-.01-1.177-.05-.588-.038-1.173-.106-.586-.068-1.167-.164-.58-.097-1.157-.222-.575-.125-1.144-.278-.57-.153-1.13-.334-.56-.181-1.112-.39-.55-.207-1.091-.442-.54-.235-1.069-.496-.528-.261-1.042-.548-.515-.287-1.015-.598-.5-.312-.984-.648t-.951-.695q-.467-.36-.916-.741t-.878-.785q-.43-.403-.839-.827-.41-.423-.797-.867-.388-.443-.754-.905t-.708-.941q-.343-.48-.662-.975-.318-.495-.612-1.006-.294-.51-.563-1.035-.269-.524-.511-1.061-.243-.537-.459-1.085-.216-.548-.404-1.106-.19-.558-.35-1.125-.161-.567-.295-1.141-.133-.574-.238-1.153-.104-.58-.18-1.164-.077-.584-.124-1.171-.048-.588-.067-1.177-.018-.588-.008-1.177l14.333-821.15q.01-.588.05-1.176.039-.588.107-1.173.068-.585.164-1.166.097-.582.222-1.157.125-.576.278-1.145.153-.569.334-1.13.181-.56.39-1.111.207-.552.442-1.092.235-.54.496-1.068t.548-1.043q.287-.515.598-1.015.312-.5.648-.984t.695-.95q.36-.468.74-.917.382-.448.786-.878.403-.43.827-.839.423-.409.867-.797.443-.388.905-.754.462-.365.941-.708.48-.343.975-.661.495-.32 1.006-.613.51-.294 1.035-.563.524-.268 1.061-.51.537-.243 1.085-.46.548-.215 1.106-.404.558-.189 1.125-.35.567-.161 1.14-.294.574-.133 1.154-.238.58-.105 1.164-.181.584-.077 1.171-.124.588-.048 1.177-.066.588-.019 1.177-.009Z"
              fill="#320D6D" fill-rule="evenodd"/>
        <g fill="#FFE66D">
            <path d="M484.3 824.988c164.7 0 270.9-94.5 270.9-282.6v-357.3H644.5v362.7c0 116.1-60.3 174.6-158.4 174.6-99 0-159.3-62.1-159.3-179.1v-358.2H216.1v362.7c0 182.7 104.4 277.2 268.2 277.2Z"/>
            <path d="M430 785h110v135H430V785ZM187 196c0-46.392 37.608-84 84-84s84 37.608 84 84-37.608 84-84 84-84-37.608-84-84Zm431 0c0-46.392 37.608-84 84-84s84 37.608 84 84-37.608 84-84 84-84-37.608-84-84Z"
                  fill-rule="evenodd"/>
            <path d="M401 785c0-46.392 37.608-84 84-84s84 37.608 84 84-37.608 84-84 84-84-37.608-84-84Z"
                  fill-rule="evenodd"/>
        </g>
    </g>
</svg>
